<svg version="1.2" xmlns="http://www.w3.org/2000/svg" viewBox="0 0 3840 315" width="3840" height="315">
	<style>
		.s0 { fill: #54d2fd } 
		.s1 { fill: #505252 } 
	</style>
	<g id="Layer 3 copy 3">
		<path id="Path 0" class="s0" d="m1250.25-0.25c420.06 0.14 763.74 0.59 763.72 1-0.01 0.41-14.92 32.02-33.13 70.25-18.2 38.23-33.27 70.06-33.47 70.75-0.3 1 48.76 1.25 242.88 1.27l243.25 0.03 32-67.06 1374.5 0.01v-75.5c-1555.81-1.16-2310.35-1.39-2680.5-1.25l-673 0.25zm-1250.25 310.75v4.5h3840v-9h-3840z"/>
		<path id="Path 1" class="s1" d="m0 153v153l1869.37-0.5c64.09-134.85 96.62-203.25 113.64-239 17.02-35.75 30.95-65.34 30.96-65.75 0.02-0.41-453.12-0.75-1006.97-0.75h-1007z"/>
	</g>
</svg>